<!--suppress CheckTagEmptyBody -->
<svg id="visual" viewBox="0 0 900 600" width="900" height="600" xmlns="http://www.w3.org/2000/svg" version="1.1">
    <rect x="0" y="0" width="900" height="600" fill="#4a0b5e"></rect>
    <defs>
        <linearGradient id="grad1_0" x1="33.3%" y1="100%" x2="100%" y2="0%">
            <stop offset="20%" stop-color="#8d1cd7" stop-opacity="1"></stop>
            <stop offset="80%" stop-color="#8d1cd7" stop-opacity="1"></stop>
        </linearGradient>
    </defs>
    <defs>
        <linearGradient id="grad1_1" x1="33.3%" y1="100%" x2="100%" y2="0%">
            <stop offset="20%" stop-color="#8d1cd7" stop-opacity="1"></stop>
            <stop offset="80%" stop-color="#6d1197" stop-opacity="1"></stop>
        </linearGradient>
    </defs>
    <defs>
        <linearGradient id="grad1_2" x1="33.3%" y1="100%" x2="100%" y2="0%">
            <stop offset="20%" stop-color="#4a0b5e" stop-opacity="1"></stop>
            <stop offset="80%" stop-color="#6d1197" stop-opacity="1"></stop>
        </linearGradient>
    </defs>
    <defs>
        <linearGradient id="grad2_0" x1="0%" y1="100%" x2="66.7%" y2="0%">
            <stop offset="20%" stop-color="#8d1cd7" stop-opacity="1"></stop>
            <stop offset="80%" stop-color="#8d1cd7" stop-opacity="1"></stop>
        </linearGradient>
    </defs>
    <defs>
        <linearGradient id="grad2_1" x1="0%" y1="100%" x2="66.7%" y2="0%">
            <stop offset="20%" stop-color="#6d1197" stop-opacity="1"></stop>
            <stop offset="80%" stop-color="#8d1cd7" stop-opacity="1"></stop>
        </linearGradient>
    </defs>
    <defs>
        <linearGradient id="grad2_2" x1="0%" y1="100%" x2="66.7%" y2="0%">
            <stop offset="20%" stop-color="#6d1197" stop-opacity="1"></stop>
            <stop offset="80%" stop-color="#4a0b5e" stop-opacity="1"></stop>
        </linearGradient>
    </defs>
    <g transform="translate(900, 600)">
        <path d="M-513.8 0C-508.8 -33.2 -503.8 -66.4 -496.3 -98.7C-488.8 -131.1 -478.7 -162.6 -467.5 -193.6C-456.2 -224.7 -443.7 -255.3 -427.2 -285.4C-410.7 -315.6 -390.1 -345.1 -359.2 -359.2C-328.3 -373.3 -287.1 -371.8 -257.2 -385C-227.3 -398.1 -208.8 -425.8 -183.7 -443.5C-158.6 -461.1 -126.9 -468.6 -95.2 -478.6C-63.5 -488.7 -31.7 -501.2 0 -513.8L0 0Z"
              fill="#5c0d7a"></path>
        <path d="M-342.5 0C-339.2 -22.1 -335.9 -44.2 -330.9 -65.8C-325.8 -87.4 -319.2 -108.4 -311.7 -129.1C-304.1 -149.8 -295.8 -170.2 -284.8 -190.3C-273.8 -210.4 -260.1 -230.1 -239.5 -239.5C-218.9 -248.9 -191.4 -247.9 -171.5 -256.6C-151.6 -265.4 -139.2 -283.9 -122.5 -295.6C-105.7 -307.4 -84.6 -312.4 -63.5 -319.1C-42.3 -325.8 -21.2 -334.2 0 -342.5L0 0Z"
              fill="#7d15b6"></path>
        <path d="M-171.3 0C-169.6 -11.1 -167.9 -22.1 -165.4 -32.9C-162.9 -43.7 -159.6 -54.2 -155.8 -64.5C-152.1 -74.9 -147.9 -85.1 -142.4 -95.1C-136.9 -105.2 -130 -115 -119.7 -119.7C-109.4 -124.4 -95.7 -123.9 -85.7 -128.3C-75.8 -132.7 -69.6 -141.9 -61.2 -147.8C-52.9 -153.7 -42.3 -156.2 -31.7 -159.5C-21.2 -162.9 -10.6 -167.1 0 -171.3L0 0Z"
              fill="#8d1cd7"></path>
    </g>
    <g transform="translate(0, 0)">
        <path d="M513.8 0C502.8 32 491.7 64 486.5 96.8C481.2 129.5 481.7 163 474.7 196.6C467.7 230.2 453.3 264 425.7 284.5C398.1 304.9 357.4 312.1 330.9 330.9C304.4 349.7 292.2 380.1 272.2 407.4C252.3 434.8 224.6 459.1 192.9 465.6C161.2 472.1 125.5 460.8 92.7 465.9C59.9 470.9 29.9 492.4 0 513.8L0 0Z"
              fill="#5c0d7a"></path>
        <path d="M342.5 0C335.2 21.3 327.8 42.7 324.3 64.5C320.8 86.3 321.1 108.7 316.5 131.1C311.8 153.5 302.2 176 283.8 189.6C265.4 203.3 238.3 208.1 220.6 220.6C203 233.1 194.8 253.4 181.5 271.6C168.2 289.8 149.7 306.1 128.6 310.4C107.5 314.8 83.7 307.2 61.8 310.6C39.9 314 20 328.2 0 342.5L0 0Z"
              fill="#7d15b6"></path>
        <path d="M171.3 0C167.6 10.7 163.9 21.3 162.2 32.3C160.4 43.2 160.6 54.3 158.2 65.5C155.9 76.7 151.1 88 141.9 94.8C132.7 101.6 119.1 104 110.3 110.3C101.5 116.6 97.4 126.7 90.7 135.8C84.1 144.9 74.9 153 64.3 155.2C53.7 157.4 41.8 153.6 30.9 155.3C20 157 10 164.1 0 171.3L0 0Z"
              fill="#8d1cd7"></path>
    </g>
</svg>
