<svg id="visual" viewBox="0 0 900 600" width="900" height="600" xmlns="http://www.w3.org/2000/svg" xmlns:xlink="http://www.w3.org/1999/xlink" version="1.1"><rect x="0" y="0" width="900" height="600" fill="#87CEEB"></rect><path d="M0 416L21.5 410.3C43 404.7 86 393.3 128.8 382.2C171.7 371 214.3 360 257.2 370C300 380 343 411 385.8 425.8C428.7 440.7 471.3 439.3 514.2 437.5C557 435.7 600 433.3 642.8 424.3C685.7 415.3 728.3 399.7 771.2 400.5C814 401.3 857 418.7 878.5 427.3L900 436L900 601L878.5 601C857 601 814 601 771.2 601C728.3 601 685.7 601 642.8 601C600 601 557 601 514.2 601C471.3 601 428.7 601 385.8 601C343 601 300 601 257.2 601C214.3 601 171.7 601 128.8 601C86 601 43 601 21.5 601L0 601Z" fill="#7acf2a"></path><path d="M0 453L21.5 447.8C43 442.7 86 432.3 128.8 433C171.7 433.7 214.3 445.3 257.2 449.5C300 453.7 343 450.3 385.8 451.2C428.7 452 471.3 457 514.2 458C557 459 600 456 642.8 456.8C685.7 457.7 728.3 462.3 771.2 452.5C814 442.7 857 418.3 878.5 406.2L900 394L900 601L878.5 601C857 601 814 601 771.2 601C728.3 601 685.7 601 642.8 601C600 601 557 601 514.2 601C471.3 601 428.7 601 385.8 601C343 601 300 601 257.2 601C214.3 601 171.7 601 128.8 601C86 601 43 601 21.5 601L0 601Z" fill="#5bad22"></path><path d="M0 450L21.5 453.5C43 457 86 464 128.8 461.8C171.7 459.7 214.3 448.3 257.2 454.8C300 461.3 343 485.7 385.8 491.5C428.7 497.3 471.3 484.7 514.2 477C557 469.3 600 466.7 642.8 462.3C685.7 458 728.3 452 771.2 456C814 460 857 474 878.5 481L900 488L900 601L878.5 601C857 601 814 601 771.2 601C728.3 601 685.7 601 642.8 601C600 601 557 601 514.2 601C471.3 601 428.7 601 385.8 601C343 601 300 601 257.2 601C214.3 601 171.7 601 128.8 601C86 601 43 601 21.5 601L0 601Z" fill="#3e8b19"></path><path d="M0 523L21.5 520C43 517 86 511 128.8 510.8C171.7 510.7 214.3 516.3 257.2 520.8C300 525.3 343 528.7 385.8 529.3C428.7 530 471.3 528 514.2 520.2C557 512.3 600 498.7 642.8 496.8C685.7 495 728.3 505 771.2 508.7C814 512.3 857 509.7 878.5 508.3L900 507L900 601L878.5 601C857 601 814 601 771.2 601C728.3 601 685.7 601 642.8 601C600 601 557 601 514.2 601C471.3 601 428.7 601 385.8 601C343 601 300 601 257.2 601C214.3 601 171.7 601 128.8 601C86 601 43 601 21.5 601L0 601Z" fill="#246a0f"></path><path d="M0 572L21.5 565.2C43 558.3 86 544.7 128.8 544.8C171.7 545 214.3 559 257.2 562.2C300 565.3 343 557.7 385.8 556.7C428.7 555.7 471.3 561.3 514.2 557.2C557 553 600 539 642.8 537.5C685.7 536 728.3 547 771.2 553C814 559 857 560 878.5 560.5L900 561L900 601L878.5 601C857 601 814 601 771.2 601C728.3 601 685.7 601 642.8 601C600 601 557 601 514.2 601C471.3 601 428.7 601 385.8 601C343 601 300 601 257.2 601C214.3 601 171.7 601 128.8 601C86 601 43 601 21.5 601L0 601Z" fill="#094b05"></path></svg>