<svg id="visual" viewBox="0 0 900 600" width="900" height="600" xmlns="http://www.w3.org/2000/svg" xmlns:xlink="http://www.w3.org/1999/xlink" version="1.1"><rect x="0" y="0" width="900" height="600" fill="#001220"></rect><path d="M0 387L21.5 395.7C43 404.3 86 421.7 128.8 429.5C171.7 437.3 214.3 435.7 257.2 424.7C300 413.7 343 393.3 385.8 393.8C428.7 394.3 471.3 415.7 514.2 417.2C557 418.7 600 400.3 642.8 391.2C685.7 382 728.3 382 771.2 384.2C814 386.3 857 390.7 878.5 392.8L900 395L900 601L878.5 601C857 601 814 601 771.2 601C728.3 601 685.7 601 642.8 601C600 601 557 601 514.2 601C471.3 601 428.7 601 385.8 601C343 601 300 601 257.2 601C214.3 601 171.7 601 128.8 601C86 601 43 601 21.5 601L0 601Z" fill="#fa7268"></path><path d="M0 429L21.5 429.8C43 430.7 86 432.3 128.8 432.3C171.7 432.3 214.3 430.7 257.2 427.7C300 424.7 343 420.3 385.8 427.3C428.7 434.3 471.3 452.7 514.2 454C557 455.3 600 439.7 642.8 431.7C685.7 423.7 728.3 423.3 771.2 418.7C814 414 857 405 878.5 400.5L900 396L900 601L878.5 601C857 601 814 601 771.2 601C728.3 601 685.7 601 642.8 601C600 601 557 601 514.2 601C471.3 601 428.7 601 385.8 601C343 601 300 601 257.2 601C214.3 601 171.7 601 128.8 601C86 601 43 601 21.5 601L0 601Z" fill="#ef5f67"></path><path d="M0 506L21.5 505.7C43 505.3 86 504.7 128.8 503.5C171.7 502.3 214.3 500.7 257.2 493.5C300 486.3 343 473.7 385.8 467.7C428.7 461.7 471.3 462.3 514.2 467C557 471.7 600 480.3 642.8 482.8C685.7 485.3 728.3 481.7 771.2 483.5C814 485.3 857 492.7 878.5 496.3L900 500L900 601L878.5 601C857 601 814 601 771.2 601C728.3 601 685.7 601 642.8 601C600 601 557 601 514.2 601C471.3 601 428.7 601 385.8 601C343 601 300 601 257.2 601C214.3 601 171.7 601 128.8 601C86 601 43 601 21.5 601L0 601Z" fill="#e34c67"></path><path d="M0 503L21.5 502.2C43 501.3 86 499.7 128.8 496.7C171.7 493.7 214.3 489.3 257.2 490.5C300 491.7 343 498.3 385.8 505.7C428.7 513 471.3 521 514.2 519.3C557 517.7 600 506.3 642.8 506C685.7 505.7 728.3 516.3 771.2 514.2C814 512 857 497 878.5 489.5L900 482L900 601L878.5 601C857 601 814 601 771.2 601C728.3 601 685.7 601 642.8 601C600 601 557 601 514.2 601C471.3 601 428.7 601 385.8 601C343 601 300 601 257.2 601C214.3 601 171.7 601 128.8 601C86 601 43 601 21.5 601L0 601Z" fill="#d53867"></path><path d="M0 562L21.5 559.7C43 557.3 86 552.7 128.8 549C171.7 545.3 214.3 542.7 257.2 544.2C300 545.7 343 551.3 385.8 553.8C428.7 556.3 471.3 555.7 514.2 555.5C557 555.3 600 555.7 642.8 553C685.7 550.3 728.3 544.7 771.2 540.7C814 536.7 857 534.3 878.5 533.2L900 532L900 601L878.5 601C857 601 814 601 771.2 601C728.3 601 685.7 601 642.8 601C600 601 557 601 514.2 601C471.3 601 428.7 601 385.8 601C343 601 300 601 257.2 601C214.3 601 171.7 601 128.8 601C86 601 43 601 21.5 601L0 601Z" fill="#c62368"></path></svg>