<!--suppress CheckTagEmptyBody -->
<svg id="visual" viewBox="0 0 900 600" width="900" height="600" xmlns="http://www.w3.org/2000/svg" version="1.1">
    <path d="M0 181L13.7 193C27.3 205 54.7 229 82 229C109.3 229 136.7 205 163.8 192C191 179 218 177 245.2 170C272.3 163 299.7 151 327 152C354.3 153 381.7 167 409 162C436.3 157 463.7 133 491 130C518.3 127 545.7 145 573 159C600.3 173 627.7 183 654.8 179C682 175 709 157 736.2 158C763.3 159 790.7 179 818 180C845.3 181 872.7 163 886.3 154L900 145L900 0L886.3 0C872.7 0 845.3 0 818 0C790.7 0 763.3 0 736.2 0C709 0 682 0 654.8 0C627.7 0 600.3 0 573 0C545.7 0 518.3 0 491 0C463.7 0 436.3 0 409 0C381.7 0 354.3 0 327 0C299.7 0 272.3 0 245.2 0C218 0 191 0 163.8 0C136.7 0 109.3 0 82 0C54.7 0 27.3 0 13.7 0L0 0Z"
          fill="#8138f1"></path>
    <path d="M0 265L13.7 279C27.3 293 54.7 321 82 315C109.3 309 136.7 269 163.8 261C191 253 218 277 245.2 280C272.3 283 299.7 265 327 254C354.3 243 381.7 239 409 235C436.3 231 463.7 227 491 234C518.3 241 545.7 259 573 273C600.3 287 627.7 297 654.8 281C682 265 709 223 736.2 213C763.3 203 790.7 225 818 230C845.3 235 872.7 223 886.3 217L900 211L900 143L886.3 152C872.7 161 845.3 179 818 178C790.7 177 763.3 157 736.2 156C709 155 682 173 654.8 177C627.7 181 600.3 171 573 157C545.7 143 518.3 125 491 128C463.7 131 436.3 155 409 160C381.7 165 354.3 151 327 150C299.7 149 272.3 161 245.2 168C218 175 191 177 163.8 190C136.7 203 109.3 227 82 227C54.7 227 27.3 203 13.7 191L0 179Z"
          fill="#732bd5"></path>
    <path d="M0 373L13.7 389C27.3 405 54.7 437 82 447C109.3 457 136.7 445 163.8 448C191 451 218 469 245.2 463C272.3 457 299.7 427 327 409C354.3 391 381.7 385 409 386C436.3 387 463.7 395 491 407C518.3 419 545.7 435 573 446C600.3 457 627.7 463 654.8 470C682 477 709 485 736.2 482C763.3 479 790.7 465 818 458C845.3 451 872.7 451 886.3 451L900 451L900 209L886.3 215C872.7 221 845.3 233 818 228C790.7 223 763.3 201 736.2 211C709 221 682 263 654.8 279C627.7 295 600.3 285 573 271C545.7 257 518.3 239 491 232C463.7 225 436.3 229 409 233C381.7 237 354.3 241 327 252C299.7 263 272.3 281 245.2 278C218 275 191 251 163.8 259C136.7 267 109.3 307 82 313C54.7 319 27.3 291 13.7 277L0 263Z"
          fill="#641dba"></path>
    <path d="M0 523L13.7 530C27.3 537 54.7 551 82 555C109.3 559 136.7 553 163.8 550C191 547 218 547 245.2 544C272.3 541 299.7 535 327 534C354.3 533 381.7 537 409 533C436.3 529 463.7 517 491 520C518.3 523 545.7 541 573 546C600.3 551 627.7 543 654.8 543C682 543 709 551 736.2 553C763.3 555 790.7 551 818 548C845.3 545 872.7 543 886.3 542L900 541L900 449L886.3 449C872.7 449 845.3 449 818 456C790.7 463 763.3 477 736.2 480C709 483 682 475 654.8 468C627.7 461 600.3 455 573 444C545.7 433 518.3 417 491 405C463.7 393 436.3 385 409 384C381.7 383 354.3 389 327 407C299.7 425 272.3 455 245.2 461C218 467 191 449 163.8 446C136.7 443 109.3 455 82 445C54.7 435 27.3 403 13.7 387L0 371Z"
          fill="#550fa0"></path>
    <path d="M0 601L13.7 601C27.3 601 54.7 601 82 601C109.3 601 136.7 601 163.8 601C191 601 218 601 245.2 601C272.3 601 299.7 601 327 601C354.3 601 381.7 601 409 601C436.3 601 463.7 601 491 601C518.3 601 545.7 601 573 601C600.3 601 627.7 601 654.8 601C682 601 709 601 736.2 601C763.3 601 790.7 601 818 601C845.3 601 872.7 601 886.3 601L900 601L900 539L886.3 540C872.7 541 845.3 543 818 546C790.7 549 763.3 553 736.2 551C709 549 682 541 654.8 541C627.7 541 600.3 549 573 544C545.7 539 518.3 521 491 518C463.7 515 436.3 527 409 531C381.7 535 354.3 531 327 532C299.7 533 272.3 539 245.2 542C218 545 191 545 163.8 548C136.7 551 109.3 557 82 553C54.7 549 27.3 535 13.7 528L0 521Z"
          fill="#460086"></path>
</svg>
